<svg viewBox="0 0 468.81 274.18"><defs><style>.adn-realty-logo-1{fill:none;}.adn-realty-logo-2{fill:#fff;}</style></defs><title>adn-realty</title><g id="Calque_2" data-name="Calque 2"><g id="Calque_1-2" data-name="Calque 1"><path class="adn-realty-logo-1" d="M391.52,251.66c-.56.11-1.15.2-1.77.27s-1.24.16-1.85.27a14,14,0,0,0-1.71.44,5.07,5.07,0,0,0-1.47.74,3.49,3.49,0,0,0-1,1.17,3.75,3.75,0,0,0-.38,1.79,3.63,3.63,0,0,0,.38,1.74,2.92,2.92,0,0,0,1,1.11,4.35,4.35,0,0,0,1.52.57,9.7,9.7,0,0,0,1.8.16,6.81,6.81,0,0,0,3.53-.76,5.08,5.08,0,0,0,1.85-1.82,5.79,5.79,0,0,0,.73-2.15,14.43,14.43,0,0,0,.14-1.74v-2.88a3.45,3.45,0,0,1-1.22.68A12.5,12.5,0,0,1,391.52,251.66Z"/><path class="adn-realty-logo-1" d="M358.37,241.27a6.73,6.73,0,0,0-3.07.63,5.82,5.82,0,0,0-2,1.55,5.69,5.69,0,0,0-1,2,8.94,8.94,0,0,0-.35,1.85h12.57a9,9,0,0,0-1.93-4.46A5.42,5.42,0,0,0,358.37,241.27Z"/><path class="adn-realty-logo-2" d="M339,235.88a10.39,10.39,0,0,0-2.56,1.22,9.73,9.73,0,0,0-3.59,4.32h-.11v-5.22h-7.34v28.12h7.72V251.66a15.49,15.49,0,0,1,.38-3.54,7.78,7.78,0,0,1,1.28-2.86,6.23,6.23,0,0,1,2.36-1.93,8.26,8.26,0,0,1,3.59-.71,14.09,14.09,0,0,1,1.47.08q.76.08,1.31.19v-7.18a6,6,0,0,0-1.69-.27A9.22,9.22,0,0,0,339,235.88Z"/><path class="adn-realty-logo-2" d="M369.22,240.56a12.47,12.47,0,0,0-4.38-3.73,13.38,13.38,0,0,0-6.26-1.39,14.59,14.59,0,0,0-5.85,1.14,13.59,13.59,0,0,0-7.48,7.83,16.39,16.39,0,0,0-1,5.87,17.11,17.11,0,0,0,1,6,13.55,13.55,0,0,0,2.86,4.68,12.45,12.45,0,0,0,4.51,3,16.05,16.05,0,0,0,6,1.06,14.73,14.73,0,0,0,8.16-2.17q3.38-2.17,5-7.24H365a4.85,4.85,0,0,1-2.07,2.48,7.92,7.92,0,0,1-9-.52q-1.74-1.68-1.91-5.44h20.29a19.85,19.85,0,0,0-.55-6.26A15.32,15.32,0,0,0,369.22,240.56Zm-17.27,6.69a8.94,8.94,0,0,1,.35-1.85,5.69,5.69,0,0,1,1-2,5.82,5.82,0,0,1,2-1.55,6.73,6.73,0,0,1,3.07-.63,5.42,5.42,0,0,1,4.22,1.52,9,9,0,0,1,1.93,4.46Z"/><path class="adn-realty-logo-2" d="M402,258.08V243.44a6.77,6.77,0,0,0-1.14-4.11,7.83,7.83,0,0,0-2.94-2.42,13.21,13.21,0,0,0-4-1.17,31.88,31.88,0,0,0-4.3-.3,23.68,23.68,0,0,0-4.65.46,13.26,13.26,0,0,0-4.16,1.55,9.33,9.33,0,0,0-3,2.88,9,9,0,0,0-1.36,4.52h7.72a4.36,4.36,0,0,1,1.52-3.26,5.85,5.85,0,0,1,3.59-1,12.94,12.94,0,0,1,1.93.14,4.31,4.31,0,0,1,1.58.54,3,3,0,0,1,1.09,1.14,4.13,4.13,0,0,1,.41,2,2.09,2.09,0,0,1-.7,1.82,5.24,5.24,0,0,1-2.07,1,20.57,20.57,0,0,1-3,.49c-1.13.11-2.26.25-3.43.44a32.55,32.55,0,0,0-3.45.73,9.75,9.75,0,0,0-3,1.39,7.05,7.05,0,0,0-2.18,2.48,8.21,8.21,0,0,0-.84,3.94,8.81,8.81,0,0,0,.73,3.75,7.09,7.09,0,0,0,2,2.61,8.58,8.58,0,0,0,3,1.52,13.78,13.78,0,0,0,3.75.49,17.47,17.47,0,0,0,5.11-.76,10.07,10.07,0,0,0,4.35-2.67,11.36,11.36,0,0,0,.19,1.39,11.53,11.53,0,0,0,.35,1.33H403a6.51,6.51,0,0,1-.76-2.61A29.55,29.55,0,0,1,402,258.08Zm-7.72-4.62a14.43,14.43,0,0,1-.14,1.74,5.79,5.79,0,0,1-.73,2.15,5.08,5.08,0,0,1-1.85,1.82,6.81,6.81,0,0,1-3.53.76,9.7,9.7,0,0,1-1.8-.16,4.35,4.35,0,0,1-1.52-.57,2.92,2.92,0,0,1-1-1.11,3.63,3.63,0,0,1-.38-1.74,3.75,3.75,0,0,1,.38-1.79,3.49,3.49,0,0,1,1-1.17,5.07,5.07,0,0,1,1.47-.74,14,14,0,0,1,1.71-.44c.62-.11,1.23-.2,1.85-.27s1.2-.16,1.77-.27a12.5,12.5,0,0,0,1.58-.41,3.45,3.45,0,0,0,1.22-.68Z"/><rect class="adn-realty-logo-2" x="408.25" y="225.5" width="7.72" height="38.84"/><path class="adn-realty-logo-2" d="M431.85,227.78h-7.72v8.43h-4.68v5.17h4.68V258a7.17,7.17,0,0,0,.7,3.43,5.06,5.06,0,0,0,1.93,2,8,8,0,0,0,2.83,1,22.61,22.61,0,0,0,3.4.24q1.15,0,2.34-.05a18.55,18.55,0,0,0,2.18-.22v-6a10.23,10.23,0,0,1-1.14.16q-.6.06-1.25.06a2.62,2.62,0,0,1-3.26-3.26V241.38h5.66v-5.17h-5.66Z"/><path class="adn-realty-logo-2" d="M458.83,236.21l-6.15,19.26h-.11l-6.36-19.26H438l9.85,26.38a4.65,4.65,0,0,1,.33,1.74,3.88,3.88,0,0,1-.73,2.29,3,3,0,0,1-2.26,1.2,16,16,0,0,1-2.29-.05l-2.23-.22v6.36l2.36.19c.78.05,1.57.08,2.37.08a11.23,11.23,0,0,0,6.2-1.47,9.51,9.51,0,0,0,3.48-4.9l11.75-31.6Z"/><path class="adn-realty-logo-2" d="M396.58,69.67a71.84,71.84,0,0,0-45.12,15.92V73.89H324.37v136h27.09v-68a45.13,45.13,0,1,1,90.25,0v68h27.09v-68A72.31,72.31,0,0,0,396.58,69.67Z"/><path class="adn-realty-logo-2" d="M276.06,0V85.59a71.84,71.84,0,0,0-45.12-15.92c-25.7,0-47.07,16.23-66.88,36.88l18.36,20c15.93-16.8,32.15-29.81,48.51-29.81a45.13,45.13,0,0,1,0,90.25c-19.83,0-41.88-21.54-61-42.62l-30.66-34v0c-21.39-22.74-42.71-40.71-67-40.71a72.22,72.22,0,0,0,0,144.44c24.24,0,44.68-15.31,63.68-35l-18.35-20C102.46,174.95,87.22,187,72.22,187a45.13,45.13,0,0,1,0-90.25c17.62,0,39,22.55,60,46.1,0,0,27.68,30.39,27.68,30.39l-.08.07c21,21.87,44.41,40.79,71.14,40.79a71.82,71.82,0,0,0,45.12-15.92V209.9h27.09V0Z"/></g></g></svg>
