<svg xmlns="http://www.w3.org/2000/svg" width="237.027" height="48.97" viewBox="0 0 237.027 48.97">
  <g id="Groupe_7" data-name="Groupe 7" transform="translate(-31 -24)">
    <path id="Tracé_1" data-name="Tracé 1" d="M323.681,37.161a18.846,18.846,0,0,0-2.076-2.986,14.938,14.938,0,0,0-2.37-2.527,14.734,14.734,0,0,0-3.855-1.772,17.84,17.84,0,0,0,5.2-1.9,13.318,13.318,0,0,0,4.677-4.706,13.418,13.418,0,0,0,1.7-6.9,13.308,13.308,0,0,0-2.223-7.788A11.177,11.177,0,0,0,318.883,4.2a35.759,35.759,0,0,0-10.5-1.179H283.7V8.667a24.588,24.588,0,0,1,8.7,18.452,24.578,24.578,0,0,1-8.7,18.452v5.522h14.876V31.581h1.309a6.2,6.2,0,0,1,3.63,1.115A11.22,11.22,0,0,1,306.2,36.4l7.918,14.69h16.736ZM311.155,20.333a3.905,3.905,0,0,1-2.4,1.508,22.13,22.13,0,0,1-3.925.657h-6.246V12.725h6.505q4.053,0,5.525,1.246a4.423,4.423,0,0,1,1.471,3.573A4.435,4.435,0,0,1,311.155,20.333Z" transform="translate(-170.893 21.857)" fill="#eb2f06"/>
    <path id="Tracé_2" data-name="Tracé 2" d="M136.175,41.675a5.141,5.141,0,0,0,.493-.366c2.711-2.722,5.375-5.493,8.146-8.151a2.427,2.427,0,0,0,.706-3.123,9.824,9.824,0,1,1,16.194,3.573c-4.475,4.651-9.072,9.18-13.611,13.769-.554.561-1.055,1.174-1.658,1.848A23.769,23.769,0,0,0,175.92,37.919a24.27,24.27,0,0,0-7.659-31.2A23.934,23.934,0,0,0,136.461,11C129,19.847,128.828,33.814,136.175,41.675Z" transform="translate(-62.057 22.201)" fill="#eb2f06"/>
    <g id="Groupe_1" data-name="Groupe 1" transform="translate(31 24)">
      <path id="Tracé_3" data-name="Tracé 3" d="M41.786,44.19c-5.237-4.453-8.449-11.376-8.449-19.643A27.327,27.327,0,0,1,41.786,4.558V0H28.233V17.127H13.492V0H0V48.948H13.492v-19.8H28.236v19.8h9.8l3.752-4.593V44.19Z" fill="#eb2f06"/>
    </g>
    <g id="Groupe_2" data-name="Groupe 2" transform="translate(148.63 24.453)">
      <path id="Tracé_4" data-name="Tracé 4" d="M448.837,42.063h-20.07l-2.788,8.009H407.93L429.43,1.56h19.283l21.5,48.512H451.7Zm-3.668-10.49-6.315-17.438L432.6,31.574Z" transform="translate(-407.93 -1.56)" fill="#eb2f06"/>
    </g>
    <path id="Soustraction_6" data-name="Soustraction 6" d="M28.8,47.3H19.148L6.809,19.58V.232h8.178a1.776,1.776,0,0,1,.365-.041C20.706.174,26.9.145,32.881.117,44.466.062,57.594,0,68.639,0h.92a.28.28,0,0,1,.117.032V.041H70.8V.619c-.961.951-1.93,1.914-2.833,2.813L67.9,3.5c-2.664,2.65-5.181,5.153-7.769,7.61a3.634,3.634,0,0,1-2.293.636c-8.3.026-16.633.03-24.4.03h-14.4V17.4h35.3c-.834.9-1.651,1.735-2.44,2.546l-.048.049-.012.012a59.516,59.516,0,0,0-4.774,5.308,8.466,8.466,0,0,1-7.418,3.624c-.23,0-.468-.005-.708-.016-2.386-.1-4.979-.154-8.159-.154-1.983,0-4.086.019-5.776.034h-.1c-1.9.017-3.857.034-5.8.034v5.679H39.38l-1.292,1.456L28.8,47.295Z" transform="translate(197.224 25.605)" fill="#eb2f06"/>
  </g>
</svg>
